<?xml version="1.0" encoding="UTF-8"?><svg xmlns="http://www.w3.org/2000/svg" xmlns:xlink="http://www.w3.org/1999/xlink" width="375pt" zoomAndPan="magnify" viewBox="0 0 375 375" height="374.999991pt" preserveAspectRatio="xMidYMid meet" version="1.2"><defs><clipPath xml:id="clip1" id="clip1"><path d="M 9 19 L 371.894531 19 L 371.894531 358.222656 L 9 358.222656 Z M 9 19 "/></clipPath><clipPath xml:id="clip2" id="clip2"><path d="M 9 19 L 371.894531 19 L 371.894531 358.222656 L 9 358.222656 Z M 9 19 "/></clipPath></defs><g xml:id="surface1" id="surface1"><g clip-rule="nonzero" clip-path="url(#clip1)"><path style=" stroke:none;fill-rule:nonzero;fill:rgb(70.979309%,77.648926%,85.488892%);fill-opacity:1;" d="M 353.023438 174.101562 C 359.296875 186.394531 355.160156 201.222656 351.019531 213.382812 C 346.351562 227.011719 340.609375 242.378906 331.667969 253.601562 C 324.0625 263.222656 312.71875 262.152344 301.90625 259.746094 C 300.304688 259.480469 298.96875 259.078125 297.636719 258.8125 C 297.101562 258.679688 296.566406 258.542969 296.035156 258.410156 C 295.765625 258.277344 295.5 258.277344 295.234375 258.144531 C 295.101562 258.144531 295.101562 258.144531 294.964844 258.011719 C 292.5625 265.625 289.496094 273.109375 286.425781 280.191406 C 281.351562 292.347656 275.347656 304.105469 267.738281 314.929688 C 260.933594 324.550781 252.660156 334.304688 243.050781 342.054688 C 242.914062 342.320312 242.648438 342.722656 242.382812 342.988281 C 242.25 343.121094 241.847656 343.257812 241.714844 343.121094 C 233.839844 349.136719 225.164062 353.8125 215.6875 356.214844 C 215.15625 356.351562 214.488281 356.484375 213.820312 356.617188 C 213.421875 356.75 213.152344 356.75 212.753906 356.882812 C 212.621094 356.882812 212.484375 356.882812 212.351562 356.75 C 210.351562 356.882812 208.214844 356.617188 205.679688 356.484375 C 205.414062 357.417969 204.613281 358.085938 203.410156 358.085938 C 190.199219 358.085938 177.519531 343.257812 183.125 330.027344 C 185.257812 325.21875 191.933594 320.007812 197.40625 320.542969 C 198.605469 320.675781 199.808594 321.074219 200.875 321.609375 C 203.945312 312.792969 209.550781 304.507812 213.285156 295.957031 C 215.6875 290.613281 217.691406 285.265625 219.691406 279.789062 C 221.5625 274.578125 224.765625 268.164062 224.632812 262.554688 C 223.695312 264.289062 221.027344 267.898438 217.023438 272.707031 C 209.148438 285.535156 198.738281 295.6875 186.195312 304.242188 C 173.78125 312.792969 158.300781 320.140625 142.949219 314.929688 C 131.605469 311.054688 121.730469 298.363281 128.269531 286.335938 C 132.941406 277.785156 145.085938 275.78125 150.824219 282.996094 L 154.296875 279.523438 C 154.296875 277.25 156.832031 274.3125 157.898438 272.839844 C 158.300781 272.308594 158.699219 271.773438 159.101562 271.238281 C 153.761719 271.773438 148.554688 272.171875 143.21875 272.308594 C 132.273438 272.574219 120.527344 272.171875 110.386719 267.097656 C 109.585938 266.695312 109.453125 266.027344 109.71875 265.359375 C 107.449219 264.824219 105.449219 264.421875 103.578125 264.289062 C 103.445312 264.558594 103.3125 264.824219 103.046875 265.09375 C 93.570312 275.113281 75.152344 263.355469 65.808594 258.8125 C 58.734375 255.339844 49.125 252.398438 43.386719 246.785156 C 38.582031 241.976562 38.046875 235.027344 34.445312 229.683594 C 34.179688 229.285156 34.578125 228.882812 34.980469 228.882812 C 33.777344 226.609375 32.976562 224.472656 33.644531 222.46875 C 33.910156 221.667969 34.042969 221 34.042969 220.199219 C 31.910156 218.058594 29.90625 215.789062 27.90625 213.652344 C 23.101562 208.304688 18.5625 202.5625 15.625 195.878906 C 12.691406 189.332031 11.355469 182.519531 11.355469 175.4375 C 11.355469 165.683594 14.425781 156.597656 12.15625 146.84375 C 12.15625 146.578125 12.421875 146.578125 12.421875 146.710938 C 12.289062 142.96875 14.160156 140.027344 15.492188 137.757812 C 3.082031 123.996094 11.488281 101.28125 20.03125 87.519531 C 31.640625 68.8125 51.128906 59.328125 66.210938 44.09375 C 67.144531 43.160156 68.476562 43.828125 68.613281 44.894531 C 71.015625 43.292969 73.816406 41.6875 76.351562 39.683594 C 77.820312 27.660156 100.109375 23.519531 108.917969 21.515625 C 122.796875 18.171875 139.746094 17.105469 150.824219 27.925781 C 152.695312 28.460938 154.960938 28.460938 156.964844 28.460938 C 156.429688 26.589844 157.363281 24.1875 159.902344 24.1875 C 176.585938 24.1875 192.464844 29.929688 206.347656 38.882812 C 213.554688 43.558594 219.960938 49.171875 226.097656 55.183594 C 232.773438 61.730469 237.578125 69.480469 243.714844 76.429688 C 243.851562 76.5625 243.714844 76.828125 243.582031 76.828125 C 245.050781 78.699219 246.117188 80.570312 247.054688 82.175781 C 247.453125 82.574219 247.855469 82.84375 248.253906 83.242188 C 254.394531 55.453125 279.351562 34.472656 308.980469 34.472656 C 343.28125 34.472656 371.175781 62.398438 371.175781 96.738281 C 371.175781 117.046875 361.429688 135.085938 346.351562 146.441406 C 344.214844 151.921875 340.878906 156.597656 335.941406 159.804688 C 343.28125 161.941406 349.953125 168.222656 353.023438 174.101562 Z M 353.023438 174.101562 "/></g><path style=" stroke:none;fill-rule:nonzero;fill:rgb(43.919373%,56.858826%,69.799805%);fill-opacity:1;" d="M 266.804688 124.128906 C 265.472656 120.386719 264.402344 116.511719 263.070312 112.773438 C 262 108.230469 261.199219 103.6875 260.933594 99.144531 C 260.933594 98.742188 260.265625 98.609375 260.265625 99.007812 C 260.132812 99.410156 260.132812 99.945312 260 100.480469 C 259.066406 96.605469 258.398438 92.730469 259.066406 88.453125 C 260 82.976562 262.269531 77.230469 264.804688 72.421875 C 265.070312 71.753906 264.269531 71.21875 263.871094 71.886719 C 259.730469 77.632812 255.59375 82.574219 254.527344 89.789062 C 254.394531 90.324219 254.394531 90.992188 254.394531 91.527344 C 253.59375 90.058594 252.792969 88.585938 251.992188 87.25 C 253.859375 76.160156 258.796875 66.007812 266.003906 57.988281 C 284.824219 55.851562 305.777344 55.984375 323.929688 61.863281 C 324.328125 62 324.730469 62.132812 325.128906 62.265625 C 328.867188 87.519531 331.800781 141.097656 293.097656 152.589844 C 286.425781 150.585938 280.285156 147.511719 274.8125 143.503906 C 274.011719 142.300781 272.945312 141.367188 272.410156 140.429688 C 271.878906 139.628906 271.210938 138.828125 270.675781 138.023438 C 274.546875 141.097656 279.21875 143.234375 283.753906 144.707031 C 284.824219 145.105469 285.625 143.371094 284.554688 142.835938 C 276.546875 138.425781 269.742188 132.546875 266.804688 124.128906 Z M 218.226562 248.65625 C 214.085938 251.996094 209.949219 255.203125 205.277344 257.875 C 196.070312 263.222656 185.925781 266.5625 175.515625 268.566406 C 172.980469 269.101562 170.445312 269.5 167.910156 269.902344 C 166.441406 272.308594 163.238281 274.175781 161.234375 275.914062 C 159.765625 277.117188 156.964844 280.324219 154.960938 280.191406 C 154.960938 280.191406 154.828125 280.191406 154.828125 280.054688 C 154.695312 279.789062 154.695312 279.523438 154.695312 279.253906 L 151.226562 282.730469 C 152.160156 283.929688 152.960938 285.265625 153.496094 286.871094 C 154.296875 289.277344 150.558594 290.746094 149.492188 288.609375 C 145.753906 280.859375 136.144531 281.660156 132.941406 289.140625 C 135.34375 287.40625 138.011719 286.203125 140.683594 286.070312 C 148.421875 285.800781 147.753906 293.417969 154.160156 295.019531 C 160.566406 296.625 173.648438 282.460938 173.113281 276.046875 C 172.445312 269.632812 181.121094 270.304688 189.398438 273.109375 C 197.671875 276.046875 191.265625 265.761719 198.738281 265.761719 C 206.214844 265.761719 203.542969 264.421875 213.820312 258.410156 C 221.292969 254 235.707031 252.398438 244.515625 250.527344 C 237.042969 248.789062 229.4375 247.589844 221.960938 245.851562 C 220.359375 246.921875 219.292969 247.722656 218.226562 248.65625 Z M 199.941406 135.753906 C 200.339844 138.691406 201.273438 142.167969 203.542969 144.304688 C 204.476562 145.238281 205.679688 145.910156 207.015625 146.441406 C 206.480469 144.039062 207.28125 142.566406 209.148438 141.097656 C 209.417969 140.964844 209.550781 141.230469 209.417969 141.367188 C 207.949219 143.101562 208.347656 144.570312 209.28125 146.441406 C 209.417969 146.710938 209.550781 146.976562 209.683594 147.109375 C 210.21875 142.835938 213.554688 139.09375 217.558594 137.757812 C 218.089844 137.625 218.359375 138.425781 217.957031 138.558594 C 212.886719 140.695312 211.285156 146.976562 213.285156 151.789062 C 219.960938 160.203125 228.101562 168.222656 235.707031 175.4375 C 241.714844 181.183594 249.1875 189.066406 257.195312 193.742188 C 263.070312 194.8125 268.539062 196.011719 274.011719 192.539062 C 274.144531 192.40625 274.414062 192.539062 274.28125 192.808594 C 273.210938 195.34375 270.410156 196.949219 267.207031 197.617188 C 267.605469 197.617188 267.875 197.75 268.140625 198.019531 C 273.210938 197.75 278.417969 196.546875 283.089844 194.945312 C 283.890625 194.675781 284.15625 195.746094 283.621094 196.148438 C 277.082031 201.089844 262.132812 206.433594 254.394531 200.554688 C 254.792969 201.492188 255.0625 202.425781 255.460938 203.363281 C 256.394531 205.367188 257.328125 207.238281 259.066406 208.574219 C 259.464844 208.839844 259.199219 209.640625 258.664062 209.375 C 256.394531 208.574219 254.125 207.90625 252.257812 206.300781 C 252.125 206.167969 251.992188 206.035156 251.859375 206.035156 C 250.523438 209.109375 248.789062 212.046875 247.320312 214.71875 C 246.386719 216.324219 245.316406 218.058594 244.25 219.664062 C 248.65625 219.796875 253.859375 221.933594 257.328125 223.136719 C 264.671875 225.808594 271.210938 229.285156 277.75 233.691406 C 278.015625 233.828125 277.75 234.226562 277.484375 234.09375 C 266.804688 228.214844 253.59375 223.9375 241.3125 223.539062 C 239.578125 225.675781 237.710938 227.546875 235.574219 229.148438 C 235.175781 229.417969 234.640625 229.148438 234.507812 228.882812 C 233.304688 230.621094 231.703125 232.488281 229.96875 234.359375 C 231.839844 235.027344 233.039062 237.167969 231.171875 238.769531 C 229.96875 239.839844 228.636719 240.90625 227.300781 241.84375 C 235.175781 243.179688 243.050781 245.316406 250.921875 248.121094 C 253.992188 244.515625 236.242188 236.363281 246.652344 232.488281 C 257.195312 228.617188 280.019531 243.046875 283.222656 237.03125 C 286.425781 230.886719 275.882812 227.414062 268.539062 218.726562 C 261.199219 210.042969 262.800781 208.171875 272.679688 205.902344 C 282.554688 203.628906 298.570312 192.808594 290.960938 190.800781 C 283.222656 188.933594 283.222656 191.070312 285.890625 185.058594 C 288.558594 179.042969 266.003906 190.132812 252.257812 181.851562 C 238.511719 173.566406 216.757812 153.257812 217.691406 147.511719 C 218.625 141.765625 224.765625 136.289062 218.625 135.351562 C 212.484375 134.417969 208.75 139.226562 204.878906 136.019531 C 203.144531 134.550781 203.410156 130.808594 204.078125 127.203125 C 200.207031 128.40625 199.539062 132.144531 199.941406 135.753906 Z M 310.316406 245.050781 C 302.574219 242.777344 313.382812 224.207031 314.183594 216.054688 C 311.117188 221 308.046875 225.808594 304.441406 230.351562 C 303.242188 231.820312 301.507812 230.886719 300.972656 229.550781 C 299.105469 232.488281 297.367188 235.5625 296.167969 238.636719 C 297.503906 238.503906 299.105469 239.4375 298.96875 241.042969 C 298.4375 245.316406 297.636719 249.460938 296.433594 253.734375 C 296.703125 253.734375 297.101562 253.734375 297.367188 253.867188 C 302.039062 255.203125 307.246094 256.675781 312.183594 257.34375 C 312.316406 256.941406 312.71875 256.675781 313.25 256.40625 C 318.324219 254.9375 321.925781 246.921875 324.328125 242.511719 C 324.730469 241.710938 325.128906 241.042969 325.53125 240.238281 C 321.527344 243.179688 315.652344 246.652344 310.316406 245.050781 Z M 330.46875 236.632812 C 327.796875 243.046875 323.792969 253.066406 317.65625 257.476562 C 324.328125 257.207031 328.332031 252.398438 331.667969 246.921875 C 333.9375 243.046875 336.207031 239.039062 338.074219 234.894531 C 335.671875 236.363281 332.070312 238.101562 330.46875 236.632812 Z M 347.683594 174.769531 C 348.753906 175.4375 349.6875 176.371094 350.621094 177.175781 C 348.617188 172.230469 345.015625 167.953125 340.476562 165.015625 C 339.945312 164.613281 339.277344 164.347656 338.742188 164.078125 C 340.34375 165.949219 341.679688 168.089844 342.878906 169.957031 C 343.8125 171.429688 344.347656 172.898438 344.882812 174.234375 C 345.550781 173.96875 346.484375 173.96875 347.683594 174.769531 Z M 329.265625 170.625 C 333.269531 167.820312 338.875 171.828125 341.546875 174.234375 C 339.542969 170.09375 335.273438 163.410156 330.335938 162.609375 C 327.132812 163.945312 323.527344 165.148438 319.925781 165.550781 C 322.460938 168.089844 324.59375 171.160156 325.929688 174.5 C 326.597656 173.164062 327.53125 171.828125 329.265625 170.625 Z M 319.257812 173.433594 C 320.457031 173.566406 321.527344 174.367188 322.460938 175.167969 C 320.859375 172.230469 318.457031 169.691406 315.652344 167.554688 C 316.1875 169.691406 316.453125 171.964844 316.453125 174.234375 C 317.121094 173.699219 318.054688 173.300781 319.257812 173.433594 Z M 91.96875 104.21875 C 96.773438 101.148438 101.578125 98.476562 104.511719 93.265625 C 107.582031 87.652344 107.984375 80.035156 105.046875 74.292969 C 100.507812 65.207031 87.964844 64.136719 78.355469 63.066406 C 83.691406 64.003906 94.101562 67.609375 97.039062 80.304688 C 101.175781 97.671875 62.738281 108.898438 52.328125 105.558594 C 44.453125 103.019531 42.71875 91.792969 42.320312 86.71875 C 40.585938 91.929688 40.449219 97.539062 42.050781 103.019531 C 46.054688 116.113281 58.203125 114.242188 69.011719 113.574219 C 69.414062 113.574219 69.679688 113.707031 69.945312 113.839844 C 71.148438 113.574219 72.347656 113.304688 73.550781 113.039062 C 73.550781 112.773438 73.683594 112.636719 73.949219 112.503906 C 74.484375 112.238281 74.882812 111.835938 75.417969 111.4375 C 75.820312 111.167969 76.484375 111.035156 76.886719 110.902344 C 78.085938 110.5 79.15625 110.101562 80.222656 110.769531 C 80.355469 110.902344 80.488281 111.035156 80.625 111.167969 C 85.5625 109.699219 89.964844 108.230469 93.835938 106.492188 C 93.4375 106.625 92.902344 106.625 92.5 106.625 C 91.300781 106.757812 91.035156 104.890625 91.96875 104.21875 Z M 82.757812 215.253906 C 86.230469 206.035156 77.6875 199.21875 69.546875 197.214844 C 68.746094 197.082031 68.210938 198.285156 69.011719 198.550781 C 74.484375 200.957031 79.421875 203.363281 80.488281 210.042969 C 81.023438 213.515625 80.089844 216.992188 77.820312 219.53125 C 75.550781 222.066406 68.613281 226.746094 65.273438 222.871094 C 65.140625 222.601562 64.875 222.601562 64.609375 222.46875 C 71.015625 229.015625 79.824219 222.871094 82.757812 215.253906 Z M 58.46875 164.347656 C 57.933594 165.148438 57.265625 165.816406 56.734375 166.484375 C 56.332031 167.152344 56.199219 167.820312 56.066406 168.757812 C 56.066406 170.894531 57.933594 174.234375 60.070312 174.902344 C 61.9375 175.4375 65.273438 174.367188 66.875 173.433594 C 67.8125 172.898438 68.613281 172.230469 69.277344 171.429688 C 69.011719 170.894531 68.476562 170.359375 67.8125 170.625 C 65.410156 171.5625 61.269531 174.5 59.136719 171.695312 C 58.066406 170.359375 58.46875 168.089844 59.269531 166.753906 C 59.804688 165.816406 60.335938 165.414062 60.203125 164.347656 C 60.070312 163.8125 59.667969 163.8125 59.269531 163.945312 C 58.867188 163.945312 58.734375 164.078125 58.46875 164.347656 Z M 128.003906 187.195312 C 125.199219 186.925781 121.730469 184.253906 120.796875 181.582031 C 120.796875 181.449219 120.394531 181.449219 120.527344 181.714844 C 121.0625 184.65625 121.730469 187.328125 123.730469 189.066406 C 123.867188 189.066406 124.132812 189.066406 124.265625 189.066406 C 131.605469 189.601562 138.679688 188.933594 140.015625 180.246094 C 140.546875 176.640625 140.546875 172.898438 137.078125 170.625 C 134.808594 169.289062 130.804688 167.421875 128.003906 168.355469 C 128.003906 169.023438 128.269531 169.691406 129.070312 169.824219 C 135.609375 171.027344 139.480469 176.90625 135.476562 182.785156 C 133.742188 185.191406 131.472656 187.460938 128.003906 187.195312 Z M 138.144531 242.511719 C 140.28125 241.976562 142.015625 240.375 143.21875 238.636719 C 145.488281 235.429688 146.019531 230.753906 143.617188 227.679688 C 143.351562 227.414062 142.949219 227.277344 142.550781 227.144531 C 142.285156 227.011719 142.015625 227.414062 142.148438 227.679688 C 143.484375 230.351562 143.085938 235.695312 140.414062 237.566406 C 139.613281 238.234375 138.414062 238.503906 137.480469 238.902344 C 136.144531 239.570312 134.410156 240.507812 132.808594 240.105469 C 132.40625 239.972656 131.738281 240.375 131.875 240.90625 C 131.875 240.90625 131.875 240.90625 131.875 241.042969 C 134.007812 242.109375 135.609375 243.179688 138.144531 242.511719 Z M 162.304688 252.398438 C 162.4375 253.332031 161.769531 253.867188 160.96875 254 C 161.902344 255.339844 163.371094 256.539062 165.507812 257.476562 C 166.175781 257.742188 166.441406 256.808594 166.175781 256.40625 C 158.566406 246.652344 172.847656 238.636719 180.589844 236.765625 C 188.863281 234.894531 197.671875 235.964844 205.277344 239.570312 C 205.414062 239.570312 205.546875 239.4375 205.414062 239.304688 C 203.542969 237.167969 201.273438 235.5625 199.007812 234.359375 C 183.925781 230.085938 160.433594 234.09375 162.304688 252.398438 Z M 195.003906 179.578125 C 200.609375 185.457031 209.148438 184.921875 215.824219 181.449219 C 216.488281 181.183594 217.023438 181.183594 217.558594 181.582031 C 218.625 180.515625 219.425781 179.3125 219.960938 177.84375 C 220.492188 176.238281 218.492188 175.4375 217.425781 176.371094 C 213.152344 179.847656 209.949219 180.246094 204.746094 178.910156 C 201.410156 178.109375 198.339844 176.90625 195.9375 174.367188 C 189.664062 167.820312 194.335938 160.070312 200.339844 155.527344 C 200.472656 155.394531 200.472656 155.128906 200.207031 155.128906 C 197.804688 155.394531 195.804688 156.332031 194.203125 157.53125 C 189.796875 164.214844 189.796875 174.101562 195.003906 179.578125 Z M 178.71875 70.148438 C 182.855469 63.601562 177.25 55.71875 171.78125 52.511719 C 168.441406 50.507812 164.574219 49.574219 160.703125 49.839844 C 158.699219 50.242188 156.5625 51.042969 154.5625 51.84375 C 153.894531 52.109375 153.894531 53.179688 154.695312 53.179688 C 163.105469 53.046875 174.183594 53.582031 174.984375 64.804688 C 175.515625 71.484375 169.378906 72.285156 164.304688 72.554688 C 159.5 72.820312 155.628906 71.886719 151.625 69.082031 C 150.292969 68.277344 148.957031 69.480469 148.824219 70.683594 C 148.957031 70.816406 149.089844 70.816406 149.222656 70.949219 C 157.097656 76.964844 172.179688 80.4375 178.71875 70.148438 Z M 178.71875 70.148438 "/><path style=" stroke:none;fill-rule:nonzero;fill:rgb(100%,100%,100%);fill-opacity:1;" d="M 267.875 55.71875 C 268.675781 54.917969 269.339844 54.25 270.140625 53.582031 C 277.347656 50.375 289.761719 47.167969 297.234375 50.105469 C 297.769531 50.242188 297.902344 49.4375 297.503906 49.304688 C 292.164062 47.035156 286.824219 47.300781 281.21875 47.96875 C 280.019531 48.101562 278.417969 48.238281 276.949219 48.371094 C 286.15625 42.222656 297.234375 38.617188 309.246094 38.617188 C 331 38.617188 350.085938 50.640625 360.097656 68.546875 C 354.625 63.734375 347.152344 60.796875 340.746094 58.257812 C 340.34375 58.125 340.210938 58.660156 340.476562 58.925781 C 345.949219 61.464844 351.554688 64.539062 356.09375 68.546875 C 359.828125 71.886719 361.964844 76.296875 365.035156 80.171875 C 365.570312 81.773438 365.96875 83.511719 366.371094 85.246094 C 358.226562 73.222656 343.148438 65.070312 330.601562 59.859375 C 320.457031 55.71875 309.378906 54.25 298.570312 53.847656 C 288.292969 53.3125 277.75 53.3125 267.875 55.71875 Z M 215.6875 356.214844 C 215.15625 356.351562 214.488281 356.484375 213.820312 356.617188 C 214.488281 356.484375 215.15625 356.351562 215.6875 356.214844 Z M 301.773438 259.882812 C 300.304688 259.613281 298.96875 259.210938 297.503906 258.945312 C 298.835938 259.210938 300.171875 259.480469 301.773438 259.882812 Z M 154.5625 279.386719 L 151.09375 282.863281 Z M 294.964844 258.011719 C 295.101562 258.011719 295.101562 258.011719 295.234375 258.144531 C 295.234375 258.144531 295.101562 258.011719 294.964844 258.011719 C 295.101562 258.011719 295.101562 258.011719 294.964844 258.011719 Z M 212.484375 355.816406 C 222.230469 349.804688 231.4375 343.523438 239.847656 336.441406 C 239.578125 335.90625 239.445312 335.371094 239.046875 334.972656 C 237.445312 332.164062 234.640625 329.359375 232.238281 327.355469 C 232.105469 327.222656 232.238281 326.953125 232.503906 327.089844 C 235.976562 329.492188 239.046875 331.230469 241.449219 334.703125 C 241.449219 334.839844 241.582031 334.839844 241.582031 334.972656 C 247.585938 329.761719 253.191406 324.015625 258.128906 317.601562 C 251.992188 309.183594 243.851562 301.96875 234.242188 297.960938 C 233.707031 297.695312 233.972656 296.890625 234.507812 297.160156 C 244.917969 300.632812 253.726562 306.378906 260.132812 315.0625 C 261.46875 313.191406 262.800781 311.320312 264.136719 309.453125 C 266.804688 305.441406 269.207031 301.433594 271.476562 297.160156 C 262.535156 288.472656 251.859375 281.925781 239.578125 278.855469 C 239.179688 278.71875 239.3125 278.1875 239.710938 278.1875 C 252.390625 279.65625 264.136719 284.734375 273.34375 293.683594 C 276.683594 287.40625 279.484375 280.859375 282.152344 274.175781 C 286.558594 262.820312 289.226562 250.660156 294.433594 239.707031 C 294.832031 239.035156 295.5 238.636719 296.167969 238.503906 C 297.503906 235.5625 299.105469 232.488281 300.972656 229.417969 C 300.707031 228.882812 300.707031 228.214844 300.972656 227.546875 C 308.179688 212.980469 319.257812 201.359375 324.730469 185.859375 C 324.863281 185.457031 325.394531 185.457031 325.53125 185.859375 C 326.996094 193.074219 324.0625 199.21875 320.457031 205.367188 C 318.324219 208.839844 316.320312 212.449219 314.183594 215.921875 C 313.382812 224.074219 302.574219 242.644531 310.316406 244.917969 C 315.652344 246.519531 321.527344 243.046875 325.394531 239.972656 C 327.265625 236.5 328.867188 232.890625 330.46875 229.148438 C 334.203125 220.199219 338.207031 210.976562 341.144531 201.757812 C 341.144531 201.625 341.277344 201.757812 341.277344 201.757812 C 337.941406 213.25 335.671875 224.605469 330.867188 235.5625 C 330.734375 235.832031 330.601562 236.097656 330.46875 236.363281 C 332.070312 237.835938 335.671875 236.097656 338.074219 234.628906 C 341.277344 228.082031 343.949219 221.265625 346.484375 214.453125 C 350.355469 203.496094 354.890625 190.800781 351.421875 179.179688 C 351.15625 178.375 350.886719 177.707031 350.621094 176.90625 C 349.820312 176.105469 348.753906 175.167969 347.683594 174.5 C 346.484375 173.699219 345.414062 173.699219 344.75 173.96875 C 346.351562 179.042969 345.28125 183.988281 343.546875 189.601562 C 343.546875 189.734375 343.28125 189.734375 343.28125 189.601562 C 343.679688 184.523438 343.8125 179.179688 341.8125 174.5 C 341.679688 174.367188 341.679688 174.101562 341.546875 173.832031 C 338.875 171.429688 333.269531 167.421875 329.265625 170.226562 C 327.53125 171.429688 326.464844 172.898438 325.929688 174.101562 C 326.464844 175.4375 326.863281 176.773438 327.132812 178.109375 C 327.53125 180.113281 324.59375 180.914062 324.0625 178.910156 C 323.660156 177.441406 323.128906 176.105469 322.460938 174.902344 C 321.527344 173.96875 320.324219 173.300781 319.257812 173.164062 C 318.054688 173.03125 317.121094 173.433594 316.453125 174.101562 C 316.1875 186.125 308.179688 199.886719 297.101562 198.417969 C 296.703125 198.417969 296.433594 197.617188 296.96875 197.617188 C 304.710938 195.878906 310.046875 190.132812 312.316406 182.519531 C 314.050781 176.640625 314.050781 168.355469 309.648438 163.546875 C 305.511719 161.40625 300.972656 159.671875 296.96875 158.46875 C 288.425781 155.796875 279.617188 154.992188 270.675781 154.191406 C 270.675781 159.804688 267.472656 164.882812 263.601562 168.757812 C 263.203125 169.15625 262.535156 168.621094 262.933594 168.089844 C 266.273438 163.945312 267.472656 159.136719 268.273438 154.058594 C 266.136719 153.792969 263.871094 153.65625 261.734375 153.390625 C 258.664062 152.988281 255.59375 152.589844 252.660156 151.921875 C 252.390625 153.792969 251.324219 155.660156 250.390625 157.265625 C 249.320312 159.269531 247.855469 160.871094 245.984375 162.074219 C 245.851562 162.210938 245.585938 161.941406 245.71875 161.808594 C 246.785156 160.070312 247.855469 158.199219 248.789062 156.328125 C 249.589844 154.726562 249.855469 152.988281 250.523438 151.519531 C 238.378906 148.582031 227.300781 142.566406 220.761719 131.210938 C 220.492188 130.675781 220.761719 130.273438 221.160156 130.140625 C 220.628906 129.207031 219.691406 127.738281 218.625 126.535156 C 218.890625 126.933594 219.160156 127.46875 219.425781 127.871094 C 219.558594 128.136719 219.160156 128.539062 218.890625 128.269531 C 217.691406 126.800781 215.6875 124.261719 213.554688 124.394531 C 213.019531 124.394531 212.21875 124.796875 211.953125 125.332031 C 211.550781 126.132812 212.21875 126.667969 212.621094 127.335938 C 212.886719 127.601562 213.019531 128.003906 213.019531 128.269531 C 213.953125 129.074219 214.886719 129.875 215.554688 130.808594 C 215.554688 130.945312 215.554688 130.945312 215.421875 130.945312 C 214.355469 130.542969 213.285156 129.875 212.351562 129.207031 C 211.820312 129.207031 211.285156 128.804688 210.882812 128.40625 C 209.148438 127.46875 207.28125 126.800781 205.277344 127.070312 C 204.878906 127.070312 204.613281 127.203125 204.34375 127.335938 C 203.542969 130.945312 203.410156 134.683594 205.144531 136.15625 C 209.015625 139.359375 212.886719 134.550781 218.890625 135.484375 C 225.03125 136.421875 218.890625 141.898438 217.957031 147.644531 C 217.023438 153.390625 238.777344 173.566406 252.523438 181.984375 C 266.273438 190.269531 288.695312 179.042969 286.15625 185.191406 C 283.621094 191.335938 283.621094 189.066406 291.230469 190.9375 C 298.96875 192.808594 282.953125 203.761719 272.945312 206.035156 C 263.070312 208.304688 261.46875 210.175781 268.808594 218.863281 C 276.148438 227.546875 286.691406 231.019531 283.488281 237.167969 C 280.285156 243.3125 257.597656 228.882812 246.917969 232.625 C 236.507812 236.363281 254.261719 244.648438 251.191406 248.257812 C 261.199219 251.863281 270.808594 256.539062 279.21875 262.019531 C 279.484375 262.152344 279.21875 262.6875 278.949219 262.554688 C 270.675781 257.609375 260.132812 254.9375 250.789062 252.398438 C 248.65625 251.863281 246.519531 251.328125 244.25 250.796875 C 235.441406 252.664062 221.027344 254.269531 213.554688 258.679688 C 203.277344 264.824219 205.8125 266.027344 198.472656 266.027344 C 191.132812 266.027344 197.539062 276.316406 189.128906 273.375 C 180.855469 270.4375 172.179688 269.902344 172.847656 276.316406 C 173.515625 282.730469 160.300781 296.890625 153.894531 295.289062 C 147.488281 293.683594 148.15625 285.9375 140.414062 286.335938 C 137.746094 286.46875 135.078125 287.804688 132.675781 289.410156 C 132.542969 289.675781 132.40625 289.945312 132.40625 290.210938 C 130.40625 296.089844 133.476562 302.503906 138.011719 306.246094 C 147.089844 313.859375 160.300781 312.125 170.3125 307.847656 C 170.578125 307.714844 170.980469 307.582031 171.246094 307.449219 C 170.84375 302.90625 169.910156 297.960938 167.242188 294.21875 C 166.976562 293.820312 167.640625 293.417969 167.910156 293.683594 C 170.980469 297.558594 173.382812 301.300781 174.316406 305.84375 C 180.722656 302.503906 186.59375 298.363281 192.332031 294.085938 C 191.933594 293.152344 191.800781 292.214844 191.398438 291.011719 C 190.730469 288.875 189.796875 287.003906 188.730469 285.132812 C 186.328125 281.257812 183.257812 277.519531 179.253906 275.246094 C 178.851562 274.980469 179.253906 274.445312 179.652344 274.578125 C 183.925781 276.449219 187.796875 278.855469 190.597656 282.730469 C 192.199219 284.867188 194.601562 288.742188 195.003906 292.082031 C 199.007812 289.007812 203.011719 285.9375 206.613281 282.59375 C 206.347656 282.328125 206.078125 281.925781 206.078125 281.394531 C 206.347656 277.519531 204.613281 273.242188 201.273438 270.972656 C 200.875 270.703125 201.140625 269.902344 201.675781 270.167969 C 204.078125 270.972656 205.8125 272.039062 207.28125 274.175781 C 208.480469 275.914062 209.148438 278.1875 209.28125 280.324219 C 213.019531 276.851562 216.488281 272.976562 219.425781 268.699219 C 219.425781 268.699219 219.558594 268.699219 219.558594 268.699219 C 218.757812 270.167969 217.957031 271.503906 217.15625 272.839844 C 221.160156 268.164062 223.832031 264.421875 224.765625 262.6875 C 224.765625 262.019531 225.832031 261.886719 225.964844 262.554688 C 227.699219 273.242188 222.230469 284.464844 218.492188 294.351562 C 214.621094 304.242188 211.019531 316 204.34375 324.28125 C 207.414062 327.222656 209.816406 331.230469 212.085938 333.902344 C 213.152344 335.105469 211.417969 336.84375 210.351562 335.640625 C 207.546875 332.300781 205.011719 328.824219 200.875 327.089844 C 195.402344 324.816406 189.53125 329.226562 188.460938 334.703125 C 186.328125 344.726562 195.9375 351.539062 204.210938 353.410156 C 205.8125 353.8125 206.214844 355.28125 205.8125 356.617188 C 208.347656 356.75 210.484375 357.019531 212.484375 356.882812 C 212.085938 356.617188 212.085938 356.082031 212.484375 355.816406 Z M 335.671875 155.261719 C 337.941406 153.792969 339.808594 151.789062 341.679688 149.648438 C 332.601562 155.261719 322.058594 158.46875 310.714844 158.734375 C 311.515625 159.136719 312.316406 159.671875 313.117188 160.070312 C 313.25 160.070312 313.382812 160.203125 313.519531 160.203125 C 319.125 162.878906 330.867188 158.46875 335.671875 155.261719 Z M 234.640625 228.882812 C 233.441406 230.621094 231.839844 232.488281 230.101562 234.359375 C 231.839844 232.488281 233.441406 230.621094 234.640625 228.882812 Z M 338.074219 122.527344 C 350.21875 115.175781 350.355469 92.597656 343.414062 81.773438 C 343.148438 81.371094 342.347656 81.507812 342.347656 82.039062 C 342.613281 88.722656 342.878906 95.269531 341.8125 101.816406 C 340.746094 108.496094 336.875 114.109375 335.804688 120.65625 C 335.539062 122.125 336.875 123.328125 338.074219 122.527344 Z M 326.464844 136.019531 C 326.730469 136.554688 327.132812 136.6875 327.664062 136.957031 C 328.332031 137.222656 329.132812 136.957031 329.667969 136.421875 C 330.734375 135.21875 331.800781 133.882812 332.601562 132.414062 C 333.003906 131.746094 333.402344 131.078125 333.539062 130.410156 C 333.804688 129.605469 333.671875 129.074219 333.671875 128.269531 C 333.671875 128.136719 333.539062 128.003906 333.402344 128.003906 C 332.738281 128.269531 332.335938 128.269531 331.667969 128.539062 C 331 128.9375 330.46875 129.472656 329.933594 129.875 C 328.867188 130.945312 327.664062 132.144531 326.730469 133.347656 C 326.195312 134.285156 325.929688 135.21875 326.464844 136.019531 Z M 326.464844 136.019531 "/><g clip-rule="nonzero" clip-path="url(#clip2)"><path style=" stroke:none;fill-rule:nonzero;fill:rgb(3.138733%,0.779724%,14.118958%);fill-opacity:1;" d="M 157.230469 28.328125 C 156.699219 26.457031 157.632812 24.050781 160.167969 24.050781 C 176.851562 24.050781 192.734375 29.796875 206.613281 38.75 C 213.820312 43.425781 220.226562 49.039062 226.367188 55.050781 C 233.039062 61.597656 237.84375 69.347656 243.984375 76.296875 C 244.117188 76.429688 243.984375 76.695312 243.851562 76.695312 C 243.851562 76.695312 243.714844 76.695312 243.714844 76.695312 C 237.976562 70.550781 231.171875 65.738281 224.898438 60.128906 C 218.757812 54.785156 212.351562 49.839844 205.546875 45.429688 C 191.933594 36.613281 176.585938 30.867188 160.300781 30.734375 C 158.566406 30.597656 157.5 29.53125 157.230469 28.328125 Z M 76.484375 41.6875 C 76.621094 43.292969 78.355469 43.960938 79.554688 43.027344 C 83.828125 39.550781 86.496094 35.277344 91.699219 32.605469 C 97.574219 29.664062 104.113281 27.925781 110.386719 26.191406 C 124.265625 22.449219 138.28125 20.980469 150.691406 29.398438 C 151.359375 29.796875 152.160156 28.863281 151.492188 28.328125 C 151.359375 28.195312 151.09375 27.925781 150.957031 27.792969 C 139.882812 16.972656 122.929688 18.039062 109.050781 21.378906 C 100.242188 23.519531 77.953125 27.527344 76.484375 39.550781 C 76.484375 40.21875 76.484375 41.019531 76.484375 41.6875 Z M 19.496094 134.683594 C 10.957031 118.917969 21.230469 97.003906 31.109375 84.179688 C 42.050781 70.148438 57.132812 59.859375 68.476562 46.097656 C 68.746094 45.699219 68.878906 45.296875 68.878906 44.894531 C 68.746094 43.828125 67.410156 43.160156 66.476562 44.09375 C 51.394531 59.191406 31.910156 68.679688 20.296875 87.386719 C 11.757812 101.148438 3.347656 123.726562 15.761719 137.492188 C 17.628906 139.628906 20.832031 136.957031 19.496094 134.683594 Z M 48.324219 224.074219 C 44.722656 218.460938 39.25 214.585938 34.710938 209.910156 C 29.640625 204.699219 24.96875 198.953125 21.5 192.40625 C 14.160156 178.242188 17.496094 161.40625 12.691406 146.578125 C 12.691406 146.308594 12.289062 146.441406 12.421875 146.710938 C 14.691406 156.464844 11.757812 165.550781 11.621094 175.304688 C 11.621094 182.386719 12.957031 189.332031 15.894531 195.746094 C 18.828125 202.292969 23.367188 208.171875 28.171875 213.515625 C 30.175781 215.65625 32.175781 217.925781 34.3125 220.0625 C 37.515625 223.136719 40.851562 225.941406 44.722656 227.8125 C 46.992188 228.75 49.925781 226.476562 48.324219 224.074219 Z M 101.042969 260.550781 C 94.636719 262.019531 89.699219 262.417969 83.292969 260.148438 C 76.351562 257.609375 69.8125 254.136719 63.140625 251.0625 C 57 248.257812 48.992188 246.117188 44.453125 240.90625 C 41.117188 237.167969 38.984375 232.488281 35.644531 228.75 C 35.511719 228.613281 35.511719 228.613281 35.378906 228.613281 C 34.980469 228.613281 34.578125 229.015625 34.84375 229.417969 C 38.449219 234.761719 38.984375 241.710938 43.789062 246.519531 C 49.527344 252.265625 59.003906 255.070312 66.210938 258.542969 C 75.550781 263.085938 93.96875 274.84375 103.445312 264.824219 C 103.710938 264.558594 103.847656 264.289062 103.980469 264.023438 C 104.78125 262.285156 103.179688 260.148438 101.042969 260.550781 Z M 154.695312 280.324219 C 154.828125 280.324219 154.828125 280.324219 154.695312 280.324219 C 156.832031 280.589844 159.632812 277.382812 161.101562 276.046875 C 163.105469 274.3125 166.308594 272.441406 167.777344 270.035156 C 170.3125 269.632812 172.847656 269.234375 175.382812 268.699219 C 185.660156 266.5625 195.9375 263.222656 205.144531 258.011719 C 209.816406 255.339844 213.953125 252.132812 218.089844 248.789062 C 219.160156 247.855469 220.359375 247.054688 221.429688 246.253906 C 228.902344 247.988281 236.507812 249.191406 243.984375 250.929688 C 246.117188 251.464844 248.386719 251.996094 250.523438 252.53125 C 259.730469 255.070312 270.410156 257.609375 278.683594 262.6875 C 278.949219 262.820312 279.21875 262.417969 278.949219 262.152344 C 270.542969 256.675781 260.933594 251.996094 250.921875 248.390625 C 243.183594 245.585938 235.175781 243.445312 227.300781 242.109375 C 228.636719 241.175781 229.96875 240.105469 231.171875 239.039062 C 232.90625 237.433594 231.703125 235.164062 229.96875 234.628906 C 229.570312 234.496094 229.035156 234.359375 228.5 234.496094 C 219.691406 235.964844 212.351562 244.78125 205.144531 249.59375 C 196.46875 255.339844 186.726562 259.078125 176.71875 261.484375 C 156.164062 266.429688 132.539062 268.699219 111.71875 264.421875 C 110.917969 264.289062 110.253906 264.824219 109.984375 265.492188 C 109.71875 266.160156 109.851562 266.828125 110.652344 267.230469 C 120.664062 272.308594 132.40625 272.707031 143.484375 272.441406 C 148.824219 272.308594 154.027344 272.039062 159.367188 271.371094 C 158.964844 271.90625 158.566406 272.441406 158.164062 272.976562 C 157.097656 274.445312 154.5625 277.519531 154.5625 279.65625 C 154.5625 279.65625 154.695312 280.054688 154.695312 280.324219 Z M 204.210938 353.410156 C 195.9375 351.539062 186.328125 344.726562 188.460938 334.703125 C 189.664062 329.226562 195.535156 324.816406 200.875 327.089844 C 205.011719 328.824219 207.546875 332.300781 210.351562 335.640625 C 211.417969 336.84375 213.152344 335.105469 212.085938 333.902344 C 209.816406 331.230469 207.28125 327.222656 204.34375 324.28125 C 211.019531 316 214.753906 304.242188 218.492188 294.351562 C 222.230469 284.464844 227.699219 273.242188 225.964844 262.554688 C 225.832031 261.886719 224.765625 262.019531 224.765625 262.6875 C 224.898438 268.296875 221.695312 274.710938 219.828125 279.921875 C 217.824219 285.402344 215.6875 290.746094 213.421875 296.089844 C 209.683594 304.640625 203.945312 312.925781 201.007812 321.742188 C 199.941406 321.210938 198.738281 320.808594 197.539062 320.675781 C 192.066406 320.140625 185.394531 325.21875 183.257812 330.160156 C 177.652344 343.390625 190.332031 358.222656 203.542969 358.222656 C 204.746094 358.222656 205.414062 357.417969 205.8125 356.617188 C 206.214844 355.28125 205.8125 353.679688 204.210938 353.410156 Z M 219.558594 268.433594 C 216.488281 272.707031 213.019531 276.449219 209.417969 280.054688 C 209.28125 277.917969 208.617188 275.78125 207.414062 273.910156 C 205.945312 271.773438 204.210938 270.835938 201.808594 269.902344 C 201.273438 269.769531 201.007812 270.4375 201.410156 270.703125 C 204.746094 272.976562 206.480469 277.25 206.214844 281.125 C 206.214844 281.527344 206.480469 281.925781 206.746094 282.328125 C 203.011719 285.667969 199.140625 288.742188 195.136719 291.816406 C 194.734375 288.472656 192.332031 284.597656 190.730469 282.460938 C 187.929688 278.585938 184.058594 276.316406 179.789062 274.3125 C 179.386719 274.175781 178.988281 274.710938 179.386719 274.980469 C 183.390625 277.382812 186.460938 280.992188 188.863281 284.867188 C 190.0625 286.738281 190.863281 288.742188 191.53125 290.746094 C 191.933594 291.949219 192.066406 292.882812 192.464844 293.820312 C 186.726562 298.09375 180.722656 302.238281 174.449219 305.578125 C 173.515625 301.035156 171.113281 297.292969 168.042969 293.417969 C 167.773438 293.015625 167.109375 293.550781 167.375 293.953125 C 169.910156 297.695312 170.84375 302.503906 171.378906 307.179688 C 171.113281 307.3125 170.710938 307.449219 170.445312 307.582031 C 160.300781 311.992188 147.222656 313.59375 138.144531 305.976562 C 133.609375 302.238281 130.539062 295.824219 132.539062 289.945312 C 132.675781 289.675781 132.808594 289.410156 132.808594 289.140625 C 136.011719 281.660156 145.621094 280.992188 149.355469 288.609375 C 150.425781 290.878906 154.160156 289.277344 153.359375 286.871094 C 152.828125 285.265625 152.027344 283.929688 151.09375 282.730469 C 145.351562 275.515625 133.074219 277.519531 128.535156 286.070312 C 121.996094 298.09375 131.875 310.789062 143.21875 314.664062 C 158.566406 319.875 173.914062 312.523438 186.460938 303.972656 C 199.007812 295.289062 209.417969 285.265625 217.289062 272.441406 C 218.089844 271.371094 218.890625 269.902344 219.558594 268.433594 C 219.691406 268.433594 219.558594 268.433594 219.558594 268.433594 Z M 304.441406 230.351562 C 308.046875 225.941406 311.117188 221 314.183594 216.054688 C 316.320312 212.449219 318.457031 208.972656 320.457031 205.5 C 324.0625 199.355469 326.996094 193.339844 325.53125 185.992188 C 325.394531 185.589844 324.863281 185.589844 324.730469 185.992188 C 319.125 201.359375 308.046875 213.117188 300.972656 227.679688 C 300.707031 228.214844 300.707031 228.882812 300.972656 229.550781 C 301.507812 230.886719 303.242188 231.820312 304.441406 230.351562 Z M 353.023438 174.101562 C 359.296875 186.394531 355.160156 201.222656 351.019531 213.382812 C 346.351562 227.011719 340.609375 242.378906 331.667969 253.601562 C 324.0625 263.222656 312.71875 262.152344 301.90625 259.746094 C 300.4375 259.480469 299.105469 259.078125 297.636719 258.8125 C 297.101562 258.679688 296.566406 258.542969 296.035156 258.410156 C 295.765625 258.277344 295.5 258.277344 295.234375 258.144531 C 295.234375 258.144531 295.101562 258.011719 295.101562 258.011719 C 292.699219 265.625 289.628906 273.109375 286.558594 280.191406 C 281.488281 292.347656 275.480469 304.105469 267.875 314.929688 C 261.066406 324.550781 252.792969 334.304688 243.183594 342.054688 C 243.050781 342.320312 242.78125 342.722656 242.515625 342.988281 C 242.382812 343.121094 241.980469 343.257812 241.847656 343.121094 C 233.972656 349.136719 225.296875 353.8125 215.824219 356.214844 C 215.289062 356.351562 214.621094 356.484375 213.953125 356.617188 C 213.554688 356.75 213.285156 356.75 212.886719 356.882812 C 212.753906 356.882812 212.621094 356.882812 212.484375 356.75 C 212.085938 356.484375 212.085938 355.949219 212.484375 355.683594 C 222.230469 349.667969 231.4375 343.390625 239.847656 336.308594 C 239.578125 335.773438 239.445312 335.238281 239.046875 334.839844 C 237.445312 332.03125 234.640625 329.226562 232.238281 327.222656 C 232.105469 327.089844 232.238281 326.820312 232.503906 326.957031 C 235.976562 329.359375 239.046875 331.097656 241.449219 334.570312 C 241.449219 334.703125 241.582031 334.703125 241.582031 334.839844 C 247.585938 329.628906 253.191406 323.882812 258.128906 317.46875 C 251.992188 309.050781 243.851562 301.835938 234.242188 297.828125 C 233.707031 297.558594 233.972656 296.757812 234.507812 297.027344 C 244.917969 300.5 253.726562 306.246094 260.132812 314.929688 C 261.46875 313.058594 262.800781 311.1875 264.136719 309.316406 C 266.804688 305.308594 269.207031 301.300781 271.476562 297.027344 C 262.535156 288.339844 251.859375 281.792969 239.578125 278.71875 C 239.179688 278.585938 239.3125 278.050781 239.710938 278.050781 C 252.390625 279.523438 264.136719 284.597656 273.34375 293.550781 C 276.683594 287.273438 279.484375 280.726562 282.152344 274.042969 C 286.558594 262.6875 289.226562 250.527344 294.433594 239.570312 C 294.832031 238.902344 295.5 238.503906 296.167969 238.367188 C 297.503906 238.234375 299.105469 239.171875 298.96875 240.773438 C 298.4375 245.050781 297.636719 249.191406 296.433594 253.46875 C 296.703125 253.46875 297.101562 253.46875 297.367188 253.601562 C 302.039062 254.9375 307.246094 256.40625 312.183594 257.074219 C 312.316406 256.675781 312.71875 256.40625 313.25 256.140625 C 318.324219 254.671875 321.925781 246.652344 324.328125 242.242188 C 324.730469 241.441406 325.128906 240.773438 325.53125 239.972656 C 327.398438 236.5 329 232.890625 330.601562 229.148438 C 334.339844 220.199219 338.34375 210.976562 341.277344 201.757812 C 341.277344 201.625 341.410156 201.757812 341.410156 201.757812 C 338.074219 213.25 335.804688 224.605469 331 235.5625 C 330.867188 235.832031 330.734375 236.097656 330.601562 236.363281 C 327.933594 242.777344 323.929688 252.800781 317.789062 257.207031 C 324.460938 256.941406 328.464844 252.132812 331.800781 246.652344 C 334.070312 242.777344 336.339844 238.769531 338.207031 234.628906 C 341.410156 228.082031 344.082031 221.265625 346.617188 214.453125 C 350.488281 203.496094 355.023438 190.800781 351.554688 179.179688 C 351.289062 178.375 351.019531 177.707031 350.753906 176.90625 C 348.753906 171.964844 345.148438 167.6875 340.609375 164.746094 C 340.078125 164.347656 339.410156 164.078125 338.875 163.8125 C 340.476562 165.683594 341.8125 167.820312 343.011719 169.691406 C 343.949219 171.160156 344.480469 172.632812 345.015625 173.96875 C 346.617188 179.042969 345.550781 183.988281 343.8125 189.601562 C 343.8125 189.734375 343.546875 189.734375 343.546875 189.601562 C 343.949219 184.523438 344.082031 179.179688 342.078125 174.5 C 341.945312 174.367188 341.945312 174.101562 341.8125 173.832031 C 339.808594 169.691406 335.539062 163.011719 330.601562 162.210938 C 327.398438 163.546875 323.792969 164.746094 320.191406 165.148438 C 322.726562 167.6875 324.863281 170.761719 326.195312 174.101562 C 326.730469 175.4375 327.132812 176.773438 327.398438 178.109375 C 327.796875 180.113281 324.863281 180.914062 324.328125 178.910156 C 323.929688 177.441406 323.394531 176.105469 322.726562 174.902344 C 321.125 171.964844 318.722656 169.425781 315.921875 167.285156 C 316.453125 169.425781 316.722656 171.695312 316.722656 173.96875 C 316.453125 185.992188 308.445312 199.753906 297.367188 198.285156 C 296.96875 198.285156 296.703125 197.484375 297.234375 197.484375 C 304.976562 195.746094 310.316406 190 312.582031 182.386719 C 314.320312 176.503906 314.320312 168.222656 309.914062 163.410156 C 305.777344 161.273438 301.238281 159.535156 297.234375 158.335938 C 288.695312 155.660156 279.886719 154.859375 270.941406 154.058594 C 270.941406 159.671875 267.738281 164.746094 263.871094 168.621094 C 263.46875 169.023438 262.800781 168.488281 263.203125 167.953125 C 266.539062 163.8125 267.738281 159.003906 268.539062 153.925781 C 266.40625 153.65625 264.136719 153.523438 262 153.257812 C 258.929688 152.855469 255.863281 152.457031 252.925781 151.789062 C 252.660156 153.65625 251.589844 155.527344 250.65625 157.132812 C 249.589844 159.136719 248.121094 160.738281 246.253906 161.941406 C 246.117188 162.074219 245.851562 161.808594 245.984375 161.675781 C 247.054688 159.9375 248.121094 158.066406 249.054688 156.195312 C 249.855469 154.59375 250.121094 152.855469 250.789062 151.386719 C 238.644531 148.445312 227.566406 142.433594 221.027344 131.078125 C 220.761719 130.542969 221.027344 130.140625 221.429688 130.007812 C 221.695312 129.875 221.960938 130.007812 222.230469 130.277344 C 231.304688 144.4375 247.855469 147.378906 264.003906 148.847656 C 263.203125 139.359375 262 130.007812 260 120.789062 C 258.265625 115.710938 256.929688 110.367188 255.996094 105.691406 C 255.195312 103.152344 254.261719 100.746094 253.324219 98.207031 C 251.191406 92.730469 247.585938 87.117188 246.652344 81.238281 C 246.652344 81.105469 246.785156 81.105469 246.785156 81.105469 C 247.054688 81.371094 247.320312 81.507812 247.585938 81.773438 C 247.988281 82.175781 248.386719 82.441406 248.789062 82.84375 C 254.925781 55.050781 279.886719 34.074219 309.515625 34.074219 C 343.8125 34.074219 371.707031 62 371.707031 96.335938 C 371.707031 116.648438 361.964844 134.683594 346.882812 146.042969 C 344.75 151.519531 341.410156 156.195312 336.472656 159.402344 C 343.28125 161.941406 349.953125 168.222656 353.023438 174.101562 Z M 263.070312 112.773438 C 264.269531 116.511719 265.472656 120.386719 266.804688 124.128906 C 269.742188 132.546875 276.546875 138.425781 284.289062 142.703125 C 285.355469 143.234375 284.554688 144.972656 283.488281 144.570312 C 278.949219 143.101562 274.28125 140.964844 270.410156 137.890625 C 270.941406 138.691406 271.609375 139.496094 272.144531 140.296875 C 272.8125 141.097656 273.746094 142.167969 274.546875 143.371094 C 280.019531 147.378906 286.15625 150.585938 292.832031 152.457031 C 292.964844 152.457031 293.097656 152.457031 293.097656 152.589844 C 294.300781 152.855469 295.367188 153.125 296.566406 153.523438 C 300.570312 154.460938 304.84375 154.859375 309.113281 154.859375 C 341.144531 154.859375 367.304688 128.671875 367.304688 96.605469 C 367.304688 96.070312 367.304688 95.535156 367.304688 95 C 363.699219 86.316406 356.492188 79.902344 348.753906 74.824219 C 341.277344 69.882812 333.269531 65.207031 324.730469 62.265625 C 324.328125 62.132812 323.929688 62 323.527344 61.863281 C 305.375 55.984375 284.554688 55.851562 265.605469 57.992188 C 258.398438 66.007812 253.460938 76.160156 251.589844 87.25 C 252.523438 88.585938 253.324219 90.058594 253.992188 91.527344 C 253.992188 90.992188 254.125 90.324219 254.125 89.789062 C 255.195312 82.574219 259.332031 77.496094 263.46875 71.886719 C 263.871094 71.351562 264.804688 71.753906 264.402344 72.421875 C 262 77.363281 259.597656 83.109375 258.664062 88.453125 C 257.996094 92.597656 258.664062 96.472656 259.597656 100.480469 C 259.730469 99.945312 259.730469 99.542969 259.867188 99.007812 C 260 98.609375 260.53125 98.742188 260.53125 99.144531 C 261.199219 103.6875 262 108.230469 263.070312 112.773438 Z M 267.875 55.71875 C 277.75 53.3125 288.292969 53.3125 298.4375 53.582031 C 309.378906 53.847656 320.324219 55.316406 330.46875 59.59375 C 343.148438 64.804688 358.09375 72.953125 366.234375 84.980469 C 365.835938 83.242188 365.433594 81.640625 364.902344 79.902344 C 361.832031 76.027344 359.695312 71.617188 355.960938 68.277344 C 351.421875 64.269531 345.816406 61.332031 340.34375 58.660156 C 339.945312 58.523438 340.210938 57.855469 340.609375 57.992188 C 347.015625 60.394531 354.492188 63.46875 359.964844 68.277344 C 349.953125 50.507812 331 38.347656 309.113281 38.347656 C 297.234375 38.347656 286.15625 41.957031 276.816406 48.101562 C 278.285156 47.96875 279.886719 47.835938 281.085938 47.703125 C 286.691406 47.035156 292.03125 46.898438 297.367188 49.039062 C 297.902344 49.304688 297.636719 49.972656 297.101562 49.839844 C 289.496094 47.035156 277.214844 50.105469 270.007812 53.3125 C 269.476562 54.25 268.675781 54.917969 267.875 55.71875 Z M 313.382812 160.339844 C 319.125 163.011719 330.734375 158.46875 335.671875 155.261719 C 337.941406 153.792969 339.808594 151.789062 341.679688 149.648438 C 332.601562 155.261719 322.058594 158.46875 310.714844 158.734375 C 311.515625 159.136719 312.316406 159.671875 313.117188 160.070312 C 313.25 160.203125 313.25 160.203125 313.382812 160.339844 Z M 347.015625 133.480469 C 359.429688 120.65625 357.292969 100.746094 354.222656 84.980469 C 354.089844 84.578125 353.558594 84.714844 353.558594 85.113281 C 354.089844 92.863281 353.421875 101.546875 352.355469 109.164062 C 351.15625 117.449219 347.683594 123.863281 344.214844 131.34375 C 343.148438 133.082031 345.414062 135.085938 347.015625 133.480469 Z M 335.273438 144.4375 C 337.007812 144.4375 338.609375 142.566406 339.675781 141.367188 C 340.878906 139.894531 341.679688 138.292969 342.480469 136.554688 C 342.613281 136.289062 342.347656 136.15625 342.210938 136.289062 C 341.011719 137.492188 339.410156 138.425781 338.074219 139.359375 C 337.40625 139.761719 336.875 140.296875 336.207031 140.5625 C 335.40625 141.097656 334.605469 141.367188 334.203125 142.167969 C 333.671875 143.234375 334.203125 144.304688 335.273438 144.4375 Z M 216.089844 123.460938 C 214.753906 122.527344 213.019531 122.125 211.550781 123.058594 C 210.351562 123.726562 209.550781 125.0625 209.816406 126.402344 C 205.011719 124.394531 199.40625 125.199219 198.070312 131.613281 C 197.269531 135.351562 197.9375 140.027344 199.671875 143.371094 C 201.808594 147.511719 205.414062 148.714844 209.28125 150.316406 C 209.417969 150.449219 209.550781 150.449219 209.683594 150.449219 C 210.351562 153.925781 212.621094 156.863281 215.289062 159.269531 C 216.890625 162.074219 218.625 164.746094 220.492188 167.285156 C 224.496094 172.496094 228.902344 177.441406 233.574219 182.117188 C 237.710938 186.257812 242.78125 191.605469 248.386719 195.746094 C 245.316406 200.824219 243.714844 207.101562 241.3125 212.449219 C 239.046875 217.660156 235.976562 222.601562 234.375 228.082031 C 234.375 228.214844 234.375 228.480469 234.507812 228.613281 C 234.773438 229.015625 235.175781 229.285156 235.574219 228.882812 C 237.710938 227.277344 239.578125 225.410156 241.3125 223.269531 C 253.59375 223.539062 266.804688 227.945312 277.484375 233.824219 C 277.75 233.960938 277.882812 233.558594 277.75 233.425781 C 271.210938 229.148438 264.671875 225.542969 257.328125 222.871094 C 253.859375 221.667969 248.789062 219.53125 244.25 219.394531 C 245.316406 217.792969 246.386719 216.054688 247.320312 214.453125 C 248.921875 211.78125 250.523438 208.839844 251.859375 205.765625 C 251.992188 205.902344 252.125 206.035156 252.257812 206.035156 C 254.125 207.636719 256.394531 208.304688 258.664062 209.109375 C 259.199219 209.242188 259.464844 208.574219 259.066406 208.304688 C 257.328125 206.96875 256.261719 205.097656 255.460938 203.09375 C 255.0625 202.160156 254.792969 201.089844 254.394531 200.289062 C 262.269531 206.167969 277.082031 200.824219 283.621094 195.878906 C 284.15625 195.480469 283.890625 194.410156 283.089844 194.675781 C 278.417969 196.28125 273.078125 197.617188 268.140625 197.75 C 267.875 197.617188 267.605469 197.484375 267.207031 197.347656 C 270.542969 196.546875 273.34375 195.078125 274.28125 192.539062 C 274.28125 192.40625 274.144531 192.273438 274.011719 192.273438 C 268.40625 195.746094 263.070312 194.410156 257.195312 193.476562 C 249.054688 188.796875 241.714844 180.914062 235.707031 175.167969 C 228.101562 167.820312 219.828125 159.9375 213.285156 151.519531 C 211.285156 146.710938 213.019531 140.429688 217.957031 138.292969 C 218.359375 138.160156 218.089844 137.355469 217.558594 137.492188 C 213.554688 138.828125 210.21875 142.566406 209.683594 146.84375 C 209.550781 146.578125 209.417969 146.441406 209.28125 146.175781 C 208.214844 144.304688 207.949219 142.835938 209.417969 141.097656 C 209.550781 140.832031 209.28125 140.695312 209.148438 140.832031 C 207.28125 142.300781 206.480469 143.769531 207.015625 146.175781 C 205.8125 145.640625 204.613281 144.972656 203.542969 144.039062 C 201.273438 141.898438 200.339844 138.425781 199.941406 135.484375 C 199.539062 131.878906 200.207031 128.003906 204.078125 126.933594 C 204.34375 126.800781 204.746094 126.800781 205.011719 126.667969 C 207.015625 126.402344 208.882812 127.070312 210.617188 128.003906 C 211.019531 128.539062 211.550781 128.804688 212.085938 128.804688 C 213.152344 129.472656 214.085938 130.007812 215.15625 130.542969 C 215.289062 130.542969 215.421875 130.542969 215.289062 130.410156 C 214.621094 129.472656 213.820312 128.539062 212.753906 127.871094 C 212.753906 127.601562 212.621094 127.203125 212.351562 126.933594 C 211.953125 126.402344 211.285156 125.734375 211.683594 124.929688 C 211.953125 124.394531 212.621094 124.128906 213.285156 123.996094 C 215.421875 123.863281 217.425781 126.402344 218.625 127.871094 C 218.890625 128.136719 219.292969 127.738281 219.160156 127.46875 C 218.890625 127.070312 218.625 126.535156 218.359375 126.132812 C 217.824219 125.332031 217.289062 124.261719 216.089844 123.460938 Z M 110.117188 76.429688 C 108.25 70.550781 104.378906 66.808594 98.773438 64.804688 C 91.566406 62.132812 82.757812 59.328125 75.285156 62 C 74.882812 62.132812 74.882812 62.800781 75.285156 62.800781 C 76.351562 62.933594 77.421875 63.066406 78.488281 63.203125 C 88.097656 64.269531 100.644531 65.472656 105.179688 74.425781 C 108.117188 80.304688 107.714844 87.785156 104.648438 93.398438 C 101.710938 98.609375 96.90625 101.28125 92.101562 104.355469 C 91.167969 105.023438 91.433594 106.894531 92.769531 106.757812 C 93.300781 106.757812 93.703125 106.625 94.101562 106.625 C 107.050781 104.488281 113.722656 88.1875 110.117188 76.429688 Z M 42.1875 103.019531 C 40.585938 97.539062 40.71875 91.792969 42.453125 86.71875 C 44.054688 81.90625 46.855469 77.632812 50.859375 74.15625 C 50.996094 74.023438 50.859375 73.757812 50.59375 73.890625 C 38.183594 80.304688 33.511719 94.066406 38.183594 107.292969 C 42.71875 119.988281 59.003906 122.660156 69.8125 116.648438 C 70.878906 116.113281 70.746094 114.507812 69.945312 113.972656 C 69.679688 113.707031 69.414062 113.707031 69.011719 113.707031 C 58.335938 114.242188 46.191406 116.113281 42.1875 103.019531 Z M 80.355469 110.769531 C 79.289062 110.101562 78.085938 110.5 77.019531 110.902344 C 76.484375 111.035156 75.953125 111.167969 75.550781 111.4375 C 75.019531 111.703125 74.617188 112.105469 74.082031 112.503906 C 73.816406 112.636719 73.683594 112.90625 73.683594 113.039062 C 73.683594 113.441406 73.949219 113.707031 74.351562 113.839844 C 74.882812 113.839844 75.285156 114.109375 75.820312 114.109375 C 76.351562 114.242188 77.019531 114.109375 77.554688 114.109375 C 78.085938 114.109375 78.621094 113.972656 79.289062 113.839844 C 80.089844 113.707031 80.488281 113.441406 80.890625 112.773438 C 81.289062 112.371094 81.15625 111.703125 80.757812 111.167969 C 80.625 111.035156 80.488281 110.902344 80.355469 110.769531 Z M 115.722656 76.027344 C 118.792969 83.375 117.460938 90.859375 119.0625 98.339844 C 119.195312 99.277344 120.664062 99.144531 120.796875 98.339844 C 122.796875 90.191406 121.464844 79.101562 117.058594 71.886719 C 112.253906 64.136719 103.710938 60.796875 95.039062 59.59375 C 95.039062 59.59375 94.902344 59.726562 95.039062 59.726562 C 103.980469 61.730469 111.988281 67.210938 115.722656 76.027344 Z M 50.996094 131.34375 C 50.726562 126.265625 45.390625 125.199219 41.785156 122.660156 C 34.3125 117.449219 31.109375 107.960938 32.976562 99.144531 C 32.976562 99.007812 32.84375 98.875 32.710938 99.007812 C 30.574219 105.023438 30.707031 111.703125 33.511719 117.582031 C 36.714844 124.261719 43.253906 127.738281 48.59375 132.414062 C 49.394531 133.082031 50.996094 132.546875 50.996094 131.34375 Z M 146.152344 74.15625 C 151.757812 80.570312 160.703125 83.375 169.109375 81.507812 C 175.515625 80.171875 183.65625 75.359375 185.257812 68.546875 C 186.859375 61.332031 181.523438 53.3125 175.785156 49.574219 C 168.308594 44.761719 160.035156 45.964844 152.960938 50.640625 C 152.425781 50.910156 152.960938 51.578125 153.359375 51.441406 C 155.628906 50.375 158.167969 49.839844 160.703125 49.839844 C 164.574219 49.707031 168.578125 50.507812 171.78125 52.511719 C 177.25 55.851562 182.855469 63.601562 178.71875 70.148438 C 172.179688 80.4375 157.097656 76.964844 149.492188 70.816406 C 149.355469 70.683594 149.222656 70.550781 149.089844 70.550781 C 146.820312 69.214844 144.152344 72.019531 146.152344 74.15625 Z M 146.554688 70.015625 C 147.488281 69.480469 147.753906 68.277344 147.222656 67.34375 C 146.953125 66.808594 146.820312 66.273438 146.554688 65.605469 C 146.289062 64.804688 145.886719 63.871094 144.953125 63.871094 C 143.617188 63.871094 143.085938 65.207031 143.085938 66.273438 C 143.085938 67.34375 143.351562 68.414062 144.019531 69.214844 C 144.550781 70.28125 145.621094 70.683594 146.554688 70.015625 Z M 162.035156 90.457031 C 162.96875 90.324219 163.105469 88.855469 162.304688 88.453125 C 158.832031 86.71875 154.960938 85.78125 151.492188 83.777344 C 148.023438 81.640625 144.417969 78.835938 141.882812 75.628906 C 141.75 75.492188 141.617188 75.628906 141.617188 75.761719 C 144.6875 83.777344 152.960938 92.0625 162.035156 90.457031 Z M 188.863281 65.472656 C 189.261719 69.214844 188.730469 73.222656 187.128906 76.5625 C 186.859375 76.964844 187.527344 77.632812 187.929688 77.097656 C 193.535156 70.417969 193.535156 61.464844 188.996094 54.117188 C 188.0625 52.644531 185.925781 53.582031 186.195312 55.316406 C 186.859375 58.792969 188.460938 61.863281 188.863281 65.472656 Z M 85.160156 218.328125 C 91.167969 206.035156 79.824219 195.878906 68.078125 196.28125 C 67.8125 196.28125 67.675781 196.679688 67.945312 196.816406 C 68.476562 196.949219 69.011719 197.082031 69.546875 197.214844 C 77.6875 199.355469 86.230469 206.035156 82.757812 215.253906 C 79.957031 222.871094 71.015625 229.015625 64.609375 222.601562 C 64.339844 222.335938 63.941406 221.933594 63.671875 221.535156 C 62.738281 220.332031 60.871094 221.667969 61.136719 223.003906 C 62.472656 227.8125 67.8125 229.816406 72.480469 229.015625 C 78.085938 227.945312 82.757812 223.269531 85.160156 218.328125 Z M 61.539062 199.753906 C 59.003906 200.691406 57.132812 201.492188 55.664062 204.03125 C 54.464844 205.902344 53.128906 209.375 54.597656 211.378906 C 55.398438 212.582031 56.867188 212.3125 57.402344 210.976562 C 58.066406 209.242188 57.535156 207.371094 58.203125 205.5 C 58.867188 203.761719 60.335938 201.625 61.804688 200.554688 C 62.472656 200.421875 62.070312 199.621094 61.539062 199.753906 Z M 57.933594 213.652344 C 57 212.714844 55.664062 213.652344 55.933594 214.851562 C 56.066406 215.386719 56.199219 215.921875 56.332031 216.457031 C 56.601562 216.992188 57.132812 217.660156 57.800781 217.523438 C 58.203125 217.523438 58.601562 217.390625 58.867188 217.125 C 59.269531 216.589844 59.535156 215.789062 59.136719 215.253906 C 58.734375 214.71875 58.335938 214.183594 57.933594 213.652344 Z M 82.757812 195.613281 C 83.027344 195.746094 83.425781 195.34375 83.160156 195.078125 C 75.683594 186.660156 48.59375 186.257812 48.457031 201.089844 C 48.457031 202.027344 49.660156 202.558594 50.328125 201.890625 C 55 196.28125 59.003906 193.339844 66.476562 192.941406 C 72.347656 192.539062 77.554688 192.671875 82.757812 195.613281 Z M 49.125 206.167969 C 48.859375 207.238281 48.058594 208.039062 47.792969 209.109375 C 47.523438 210.175781 47.257812 211.511719 48.191406 212.3125 C 48.726562 212.847656 49.394531 212.847656 50.058594 212.582031 C 51.261719 212.046875 51.261719 210.710938 51.261719 209.640625 C 51.261719 208.574219 50.859375 207.636719 50.859375 206.570312 C 50.996094 205.234375 49.394531 205.097656 49.125 206.167969 Z M 89.832031 215.253906 C 88.496094 219.929688 86.363281 225.140625 83.160156 228.882812 C 80.222656 232.488281 76.753906 233.558594 72.480469 234.761719 C 71.28125 235.164062 71.015625 237.167969 72.480469 237.433594 C 77.019531 238.234375 81.691406 235.164062 84.492188 231.820312 C 88.632812 227.011719 89.296875 221.265625 90.367188 215.253906 C 90.367188 215.121094 89.964844 214.988281 89.832031 215.253906 Z M 137.210938 170.492188 C 140.683594 172.632812 140.683594 176.371094 140.148438 180.113281 C 138.8125 188.664062 131.738281 189.464844 124.398438 188.933594 C 124.265625 188.933594 124 188.933594 123.867188 188.933594 C 121.863281 189.332031 122.128906 192.671875 124.398438 192.808594 C 129.335938 193.074219 134.941406 193.207031 138.945312 190 C 142.949219 186.792969 144.152344 181.183594 143.886719 176.238281 C 143.484375 168.222656 132.140625 161.273438 125.601562 167.152344 C 124.800781 167.953125 125.867188 169.425781 126.800781 168.757812 C 127.203125 168.488281 127.601562 168.222656 128.003906 168.089844 C 130.9375 167.285156 134.941406 169.023438 137.210938 170.492188 Z M 117.726562 173.433594 C 115.859375 176.640625 113.589844 181.714844 115.589844 185.324219 C 116.125 186.257812 117.59375 186.125 117.859375 185.058594 C 118.261719 183.320312 117.859375 181.582031 117.726562 179.847656 C 117.59375 177.84375 117.726562 175.703125 118.125 173.699219 C 118.261719 173.300781 117.859375 173.164062 117.726562 173.433594 Z M 56.464844 160.203125 C 52.863281 161.675781 51.128906 166.351562 51.660156 170.09375 C 52.195312 173.566406 55.398438 178.242188 59.136719 178.777344 C 66.609375 179.980469 75.152344 171.695312 70.078125 164.480469 C 69.945312 164.347656 69.679688 164.480469 69.8125 164.613281 C 71.015625 166.886719 70.746094 169.425781 69.277344 171.292969 C 68.613281 172.097656 67.945312 172.765625 66.875 173.300781 C 65.273438 174.101562 61.9375 175.304688 60.070312 174.769531 C 57.933594 174.101562 56.066406 170.761719 56.066406 168.621094 C 56.066406 167.6875 56.332031 167.019531 56.734375 166.351562 C 57.132812 165.550781 57.800781 164.882812 58.46875 164.214844 C 58.734375 164.078125 58.867188 163.8125 59.136719 163.679688 C 61.136719 161.808594 58.601562 159.402344 56.464844 160.203125 Z M 191.664062 182.117188 C 196.070312 188.265625 215.957031 193.875 217.957031 183.1875 C 218.089844 182.519531 217.824219 181.984375 217.425781 181.582031 C 217.023438 181.183594 216.355469 181.046875 215.6875 181.449219 C 209.015625 184.921875 200.472656 185.457031 194.867188 179.578125 C 189.664062 174.101562 189.664062 164.214844 193.933594 157.667969 C 195.402344 155.394531 197.40625 153.523438 199.808594 152.320312 C 200.074219 152.1875 199.941406 151.789062 199.539062 151.789062 C 187.929688 154.726562 185.394531 173.300781 191.664062 182.117188 Z M 186.460938 157 C 186.726562 156.863281 186.460938 156.464844 186.195312 156.597656 C 175.117188 161.40625 174.582031 180.515625 183.257812 187.730469 C 184.457031 188.796875 186.460938 187.460938 185.527344 185.992188 C 180.855469 177.84375 174.714844 162.878906 186.460938 157 Z M 210.484375 194.144531 C 205.144531 196.28125 198.738281 193.339844 193.667969 191.46875 C 193 191.203125 192.734375 192.136719 193.265625 192.40625 C 197.136719 195.210938 208.082031 202.292969 211.820312 195.746094 C 212.085938 195.078125 211.417969 193.875 210.484375 194.144531 Z M 172.3125 231.554688 C 164.972656 234.496094 152.558594 244.113281 159.101562 253.199219 C 159.5 253.734375 160.300781 254 160.96875 253.867188 C 161.769531 253.734375 162.304688 253.199219 162.304688 252.265625 C 160.433594 233.960938 184.058594 230.085938 199.140625 234.359375 C 201.675781 235.164062 204.078125 236.097656 205.945312 237.300781 C 206.214844 237.433594 206.480469 237.03125 206.214844 236.898438 C 196.203125 229.550781 184.058594 226.878906 172.3125 231.554688 Z M 176.984375 222.871094 C 175.515625 223.671875 176.585938 225.675781 178.050781 225.410156 C 184.324219 224.207031 189.929688 223.003906 196.335938 224.875 C 201.808594 226.476562 206.347656 229.816406 210.882812 233.292969 C 211.019531 233.425781 211.152344 233.15625 211.019531 233.023438 C 203.011719 223.136719 189.398438 215.65625 176.984375 222.871094 Z M 160.035156 233.824219 C 161.769531 233.023438 163.238281 231.421875 164.972656 230.351562 C 166.574219 229.285156 168.308594 228.347656 170.179688 227.546875 C 170.578125 227.414062 170.3125 226.878906 170.042969 226.878906 C 167.777344 226.746094 165.773438 227.011719 163.636719 227.945312 C 161.769531 228.75 159.234375 230.21875 158.433594 232.089844 C 157.765625 233.292969 158.832031 234.359375 160.035156 233.824219 Z M 141.75 224.472656 C 141.082031 224.339844 140.546875 225.410156 141.214844 225.675781 C 142.285156 226.210938 143.085938 226.878906 143.617188 227.679688 C 146.019531 230.621094 145.351562 235.429688 143.21875 238.636719 C 142.015625 240.375 140.148438 241.976562 138.144531 242.511719 C 135.609375 243.179688 134.007812 242.109375 132.007812 241.042969 C 131.738281 240.90625 131.472656 240.773438 131.207031 240.640625 C 129.738281 239.972656 128.136719 241.441406 128.9375 242.910156 C 132.40625 249.191406 141.882812 245.71875 145.351562 241.175781 C 149.625 235.695312 149.890625 225.941406 141.75 224.472656 Z M 133.207031 227.414062 C 133.609375 227.277344 133.339844 226.746094 132.941406 226.746094 C 130.671875 227.144531 128.671875 227.8125 127.335938 229.816406 C 126.269531 231.421875 124.933594 234.226562 126.402344 235.832031 C 126.800781 236.230469 127.46875 236.230469 127.871094 235.832031 C 128.9375 234.628906 128.671875 232.757812 129.472656 231.289062 C 130.40625 229.816406 131.472656 228.214844 133.207031 227.414062 Z M 146.421875 221.398438 C 145.886719 221.398438 145.753906 222.203125 146.289062 222.335938 C 148.023438 222.734375 148.824219 223.9375 149.625 225.410156 C 149.890625 225.941406 150.15625 226.609375 150.425781 227.277344 C 150.691406 227.945312 150.691406 228.613281 151.09375 229.148438 C 151.359375 229.417969 151.625 229.550781 152.027344 229.417969 C 153.761719 228.214844 152.960938 225.140625 152.027344 223.804688 C 150.691406 222.066406 148.421875 221.398438 146.421875 221.398438 Z M 146.421875 221.398438 "/></g></g></svg>